<svg xmlns="http://www.w3.org/2000/svg" viewBox="0 0 100 100" role="img" aria-label="micro.svita">
  <title>micro.svita — sealed folio mark</title>
  <defs>
    <linearGradient id="ms-folio" x1="0%" y1="0%" x2="100%" y2="100%">
      <stop offset="0%"   stop-color="#F4EFE3"/>
      <stop offset="100%" stop-color="#E8DCC0"/>
    </linearGradient>
    <radialGradient id="ms-wax" cx="38%" cy="38%" r="62%">
      <stop offset="0%"   stop-color="#9C8757"/>
      <stop offset="55%"  stop-color="#7A6B3D"/>
      <stop offset="100%" stop-color="#544A29"/>
    </radialGradient>
    <filter id="ms-grain" x="0" y="0" width="100%" height="100%">
      <feTurbulence type="fractalNoise" baseFrequency="1.6" numOctaves="2" stitchTiles="stitch"/>
      <feColorMatrix values="0 0 0 0 0  0 0 0 0 0  0 0 0 0 0  0 0 0 0.06 0"/>
      <feComposite in2="SourceGraphic" operator="in"/>
    </filter>
  </defs>

  <!-- linen folio (paper sheet) -->
  <rect x="14" y="20" width="72" height="60" rx="0.6"
        fill="url(#ms-folio)" stroke="#2F4438" stroke-width="0.6" stroke-opacity="0.85"/>
  <!-- folio fold corner — top right envelope -->
  <path d="M86,20 L86,33 L73,20 Z" fill="#2F4438" fill-opacity="0.06"/>
  <path d="M86,20 L73,20 L86,33 Z" fill="#2F4438" fill-opacity="0.10" stroke="#2F4438" stroke-width="0.4" stroke-opacity="0.4"/>

  <!-- ribbon — horizontal -->
  <rect x="14" y="48" width="72" height="5.4" fill="#2F4438"/>
  <rect x="14" y="48"  width="72" height="0.6" fill="#1F302A"/>
  <rect x="14" y="52.8" width="72" height="0.6" fill="#1F302A"/>
  <!-- ribbon — vertical -->
  <rect x="48.3" y="20" width="5.4" height="60" fill="#2F4438"/>
  <rect x="48.3" y="20" width="0.6" height="60" fill="#1F302A"/>
  <rect x="53.1" y="20" width="0.6" height="60" fill="#1F302A"/>

  <!-- wax seal — handpressed circle at intersection -->
  <circle cx="51" cy="51" r="13.4" fill="url(#ms-wax)" stroke="#2F4438" stroke-width="0.55"/>
  <!-- thin inscribed ring -->
  <circle cx="51" cy="51" r="9.8" fill="none" stroke="#F0EADF" stroke-width="0.4" stroke-opacity="0.45"/>
  <!-- wax highlight — handpressed shine -->
  <ellipse cx="46.5" cy="46.5" rx="3.6" ry="1.8" fill="#F0EADF" fill-opacity="0.18"/>

  <!-- italic monogram — m (Cormorant Garamond) -->
  <text x="51" y="58.5"
        font-family="'Cormorant Garamond', 'Times New Roman', serif"
        font-size="19" font-style="italic" font-weight="500"
        fill="#F0EADF" text-anchor="middle">m</text>

  <!-- grain overlay -->
  <rect x="14" y="20" width="72" height="60" filter="url(#ms-grain)" pointer-events="none"/>
</svg>
